M48
INCH
T01C0.0200
T02C0.0300
T03C0.0400
T04C0.0450
%
T01
X+004578Y-002877
X-000512Y-000397
X-002103Y-000476
X-009842Y-004921
X-006722Y+004986
X-003970Y-004640
X-007111Y+002602
T02
X+006897Y+003984
X+005897Y+003984
X+004897Y+003984
X+003897Y+003984
X+002897Y+003984
X+001897Y+003984
X+000897Y+003984
X-000102Y+003984
X-001102Y+003984
X-002102Y+003984
X-003102Y+003984
X-004102Y+003984
X-005102Y+003984
X-006102Y+003984
X-006102Y+000984
X-005102Y+000984
X-004102Y+000984
X-003102Y+000984
X-002102Y+000984
X-001102Y+000984
X-000102Y+000984
X+000897Y+000984
X+001897Y+000984
X+002897Y+000984
X+003897Y+000984
X+004897Y+000984
X+005897Y+000984
X+006889Y+000984
X-001141Y+006984
X+000858Y+006984
X+000984Y+008889
X+000984Y+010889
X-001968Y+008858
X-001968Y+010858
X+003569Y+009251
X+007569Y+009251
X-008283Y-003952
X-008283Y+000047
X-010811Y+001000
X-010811Y+003000
T03
X-009660Y+009460
X-008660Y+009460
X-007660Y+009460
X-009826Y+007062
X-009826Y+005487
X-014914Y+007173
X-014914Y+006173
X-004842Y+012813
X-003842Y+012813
X+003937Y-007139
X+004937Y-007139
X+005937Y-007139
X-004976Y-007139
X-003976Y-007139
X-002976Y-007139
X-001976Y-007139
X-000976Y-007139
X+000023Y-007139
X+001023Y-007139
X+002023Y-007139
X-014612Y+002368
X-014612Y+003368
X-008494Y-009267
X-009494Y-009267
X-010494Y-009267
X+009842Y+007561
X+009842Y+008561
X+009842Y+009561
X+004527Y+012813
X+005527Y+012813
X+006527Y+012813
X+007527Y+012813
X+008527Y+012813
X+009842Y-009842
X+009842Y-008842
X+009842Y-007842
X+009842Y-006842
X+009842Y-005842
X+009842Y-004842
X+009842Y-003842
X+009842Y-002842
X+009842Y-001842
X+009842Y-000842
X-014515Y-000984
X-014515Y-001984
X-014515Y-002984
X-014515Y-003984
X-014515Y-004984
X-014515Y-005984
X-014515Y-006984
X-014515Y-007984
X-014515Y-008984
X-014515Y-009984
X-005905Y+007474
X-004330Y+007474
X-004976Y-009767
X-003976Y-009767
X-002976Y-009767
X-001976Y-009767
X-000976Y-009767
X+000023Y-009767
X+001023Y-009767
X+002023Y-009767
X+003937Y-009767
X+004937Y-009767
X+005937Y-009767
T04
X+009592Y+003937
M30
